<?xml version="1.0" standalone="no"?>
<!DOCTYPE svg PUBLIC "-//W3C//DTD SVG 20010904//EN"
 "http://www.w3.org/TR/2001/REC-SVG-20010904/DTD/svg10.dtd">
<svg version="1.0" xmlns="http://www.w3.org/2000/svg"
 width="460.000000pt" height="460.000000pt" viewBox="0 0 460.000000 460.000000"
 preserveAspectRatio="xMidYMid meet">
<metadata>
Created by potrace 1.14, written by Peter Selinger 2001-2017
</metadata>
<g transform="translate(0.000000,460.000000) scale(0.100000,-0.100000)"
fill="#000000" stroke="none">
<path fill="#FFFFFF" d="M2280 3884 c-59 -22 -74 -33 -110 -84 l-25 -35 0 -1670 0 -1670 183
-1 182 -2 0 1665 c0 1647 0 1665 -20 1704 -27 52 -87 91 -148 95 -26 2 -54 1
-62 -2z"/>
<path fill="#FFFFFF" d="M3635 3262 c-50 -19 -76 -38 -102 -75 l-28 -40 -3 -1362 -2 -1363
185 0 185 0 0 1351 0 1351 -21 44 c-28 56 -84 94 -147 98 -26 2 -56 0 -67 -4z"/>
<path fill="#FFFFFF" d="M1585 3224 c-40 -21 -74 -53 -93 -89 -14 -27 -16 -167 -16 -1370 -1
-737 0 -1347 2 -1356 3 -14 25 -16 180 -14 97 1 179 3 183 3 4 2 5 2675 1
2708 -1 6 -16 31 -32 56 -48 72 -152 100 -225 62z"/>
<path fill="#FFFFFF" d="M2945 2016 c-45 -19 -93 -72 -105 -114 -6 -24 -10 -294 -10 -758 l0
-722 185 0 185 1 1 216 c1 119 1 219 1 222 -1 7 -2 261 -1 289 0 8 0 85 0 170
0 85 0 162 0 170 1 260 -4 395 -16 423 -39 93 -152 141 -240 103z"/>
<path fill="#FFFFFF" d="M927 1700 c-41 -13 -94 -56 -114 -93 -16 -29 -17 -84 -18 -615 l-1
-582 185 2 185 3 -1 575 c0 507 -2 579 -17 612 -33 75 -139 123 -219 98z"/>
<path fill="#FFFFFF" d="M244 1085 c-17 -7 -43 -25 -59 -40 -52 -53 -55 -72 -55 -359 l0 -264
183 1 182 2 2 265 c2 245 0 268 -18 308 -37 80 -151 123 -235 87z"/>
<path fill="#FFFFFF" d="M4255 770 c-42 -21 -80 -68 -94 -116 -4 -16 -7 -74 -7 -129 l1 -100
175 -2 c96 0 180 3 185 7 11 9 12 178 1 228 -10 43 -59 99 -104 117 -48 21
-110 19 -157 -5z"/>
</g>
</svg>
