<?xml version="1.0" standalone="no"?>
<!DOCTYPE svg PUBLIC "-//W3C//DTD SVG 20010904//EN"
 "http://www.w3.org/TR/2001/REC-SVG-20010904/DTD/svg10.dtd">
<svg version="1.0" xmlns="http://www.w3.org/2000/svg"
 width="384.000000pt" height="384.000000pt" viewBox="0 0 384.000000 384.000000"
 preserveAspectRatio="xMidYMid meet">
<metadata>
Created by potrace 1.14, written by Peter Selinger 2001-2017
</metadata>
<g transform="translate(0.000000,384.000000) scale(0.100000,-0.100000)"
fill="#000000" stroke="none">
<path d="M1875 3231 c-36 -20 -62 -48 -76 -81 -7 -17 -11 -455 -11 -1390 1
-751 1 -1375 1 -1387 1 -22 2 -22 154 -20 l152 2 1 1385 c1 1321 0 1387 -17
1422 -10 20 -32 46 -49 58 -39 28 -116 34 -155 11z"/>
<path d="M3014 2718 c-30 -17 -63 -50 -78 -78 -10 -22 -13 -244 -13 -1157 l0
-1131 154 0 153 0 -2 1142 c-3 1123 -3 1141 -23 1168 -11 14 -33 35 -50 45
-34 20 -111 26 -141 11z"/>
<path d="M1345 2701 c-37 -11 -76 -44 -94 -80 -18 -34 -19 -91 -18 -1163 l0
-1128 21 -1 c105 -3 278 -1 282 4 3 3 6 512 6 1130 0 1188 2 1143 -46 1196
-34 38 -101 56 -151 42z"/>
<path d="M2484 1690 c-39 -9 -66 -28 -96 -65 l-23 -30 0 -620 0 -620 153 -1
152 -2 -2 623 c-3 616 -3 624 -24 652 -38 51 -103 76 -160 63z"/>
<path d="M764 1415 c-43 -18 -84 -55 -84 -76 0 -10 -4 -20 -8 -23 -5 -3 -8
-222 -8 -488 l1 -483 154 0 153 0 0 482 c0 505 0 501 -46 552 -39 43 -109 59
-162 36z"/>
<path d="M216 913 c-10 -3 -28 -14 -39 -24 -12 -10 -24 -19 -27 -19 -4 0 -15
-17 -24 -39 -15 -33 -18 -69 -18 -247 1 -115 1 -214 1 -220 1 -8 46 -12 155
-11 l154 0 -2 231 c-1 222 -2 232 -23 262 -12 17 -34 39 -47 48 -26 17 -98 27
-130 19z"/>
<path d="M3560 647 c-45 -21 -79 -65 -87 -110 -6 -38 -7 -58 -4 -154 l1 -33
153 3 152 2 -1 102 c0 95 -2 104 -28 138 -45 59 -124 81 -186 52z"/>
</g>
</svg>
